HIERARCHY
ROOT Pelvis
{
	OFFSET 0.000000 0.000000 0.000000
	CHANNELS 6 Xposition Yposition Zposition Xrotation Yrotation Zrotation
	JOINT LeftUpLeg_virtual
	{
		OFFSET 0.000000 0.000000 0.000000
		CHANNELS 3 Xrotation Yrotation Zrotation
		JOINT LeftUpLeg
		{
			OFFSET 18.735201 -5.666702 -4.541200
			CHANNELS 3 Xrotation Yrotation Zrotation
			JOINT LeftLeg
			{
				OFFSET -0.021200 -31.938179 0.493100
				CHANNELS 3 Xrotation Yrotation Zrotation
				JOINT LeftFoot
				{
					OFFSET 0.021200 -31.938179 -4.336299
					CHANNELS 3 Xrotation Yrotation Zrotation
					JOINT LeftToeBase
					{
						OFFSET 0.943001 -26.722000 15.023500
						CHANNELS 3 Xrotation Yrotation Zrotation
						End Site
						{
							OFFSET 0 0 0
						}
					}
				}
			}
		}
	}
	JOINT RightUpLeg_virtual
	{
		OFFSET 0.000000 0.000000 0.000000
		CHANNELS 3 Xrotation Yrotation Zrotation
		JOINT RightUpLeg
		{
			OFFSET -18.735201 -5.666702 -4.541200
			CHANNELS 3 Xrotation Yrotation Zrotation
			JOINT RightLeg
			{
				OFFSET 0.018946 -31.938133 0.493100
				CHANNELS 3 Xrotation Yrotation Zrotation
				JOINT RightFoot
				{
					OFFSET -0.018946 -31.938126 -4.336299
					CHANNELS 3 Xrotation Yrotation Zrotation
					JOINT RightToeBase
					{
						OFFSET -0.943001 -26.722004 15.023500
						CHANNELS 3 Xrotation Yrotation Zrotation
						End Site
						{
							OFFSET 0 0 0
						}
					}
				}
			}
		}
	}
	JOINT Hips_virtual
	{
		OFFSET 0.000000 0.000000 0.000000
		CHANNELS 3 Xrotation Yrotation Zrotation
		JOINT Hips
		{
			OFFSET -0.000000 -0.000000 -0.000000
			CHANNELS 3 Xrotation Yrotation Zrotation
			JOINT Spine
			{
				OFFSET 0.000000 10.199997 -0.299500
				CHANNELS 3 Xrotation Yrotation Zrotation
				JOINT Spine1
				{
					OFFSET 0.000000 11.900002 -1.516600
					CHANNELS 3 Xrotation Yrotation Zrotation
					JOINT Spine2
					{
						OFFSET 0.000000 13.600006 -2.842500
						CHANNELS 3 Xrotation Yrotation Zrotation
						JOINT Neck_virtual
						{
							OFFSET 0.000000 0.000000 0.000000
							CHANNELS 3 Xrotation Yrotation Zrotation
							JOINT Neck
							{
								OFFSET 0.000000 9.624100 -2.890100
								CHANNELS 3 Xrotation Yrotation Zrotation
								JOINT Head
								{
									OFFSET 0.000000 14.068802 -1.351900
									CHANNELS 3 Xrotation Yrotation Zrotation
									End Site
									{
										OFFSET 0 0 0
									}
								}
							}
						}
						JOINT LeftShoulder_virtual
						{
							OFFSET 0.000000 0.000000 0.000000
							CHANNELS 3 Xrotation Yrotation Zrotation
							JOINT LeftShoulder
							{
								OFFSET 15.263000 10.923401 -0.547700
								CHANNELS 3 Xrotation Yrotation Zrotation
								JOINT LeftArm
								{
									OFFSET 25.438599 -2.830597 -13.032500
									CHANNELS 3 Xrotation Yrotation Zrotation
									JOINT LeftForeArm
									{
										OFFSET 29.960503 0.000000 0.000000
										CHANNELS 3 Xrotation Yrotation Zrotation
										JOINT LeftHand
										{
											OFFSET 27.849251 0.000000 0.000000
											CHANNELS 3 Xrotation Yrotation Zrotation
											End Site
											{
												OFFSET 0 0 0
											}
										}
									}
								}
							}
						}
						JOINT RightShoulder_virtual
						{
							OFFSET 0.000000 0.000000 0.000000
							CHANNELS 3 Xrotation Yrotation Zrotation
							JOINT RightShoulder
							{
								OFFSET -15.263000 10.923401 -0.547700
								CHANNELS 3 Xrotation Yrotation Zrotation
								JOINT RightArm
								{
									OFFSET -25.438599 -2.830597 -13.032500
									CHANNELS 3 Xrotation Yrotation Zrotation
									JOINT RightForeArm
									{
										OFFSET -29.960503 0.000000 0.000000
										CHANNELS 3 Xrotation Yrotation Zrotation
										JOINT RightHand
										{
											OFFSET -27.849251 0.000000 0.000000
											CHANNELS 3 Xrotation Yrotation Zrotation
											End Site
											{
												OFFSET 0 0 0
											}
										}
									}
								}
							}
						}
					}
				}
			}
		}
	}
}
MOTION
Frames: 10
Frame Time: 0.03333333
-1.927635 90.884163 3.472902 0.000000 0.000000 0.000000 7.161442 -24.798542 2.186758 -32.630682 4.163121 16.441575 42.281234 11.181884 -5.676277 -7.951283 13.783599 -6.819686 0.000000 0.000000 0.000000 9.523103 -48.373886 9.156272 -26.432810 -19.881099 -13.854525 30.416093 -3.288854 -1.863123 -21.303246 -6.241386 6.004397 0.000000 0.000000 0.000000 -6.160202 -19.528057 0.744490 -5.313268 1.066166 2.009250 6.454752 -3.173377 -2.038724 2.357453 -1.766211 -0.964846 0.000000 0.000000 0.000000 3.727948 -1.596343 -0.128706 -0.178077 0.031429 0.174747 0.000000 0.000000 0.000000 3.968438 -3.091395 -1.223006 0.999276 -8.683650 -13.573223 -3.971878 -13.398393 -41.229778 5.568737 -51.461196 3.901465 0.000000 0.000000 0.000000 4.284819 -0.383287 0.433329 1.992023 7.901032 6.624663 -6.357584 28.816903 44.719711 38.117281 87.444262 -34.808775 0.000000 0.000000 0.000000 
-2.304860 90.957893 3.614064 0.000000 0.000000 0.000000 7.083072 -25.444423 2.221662 -32.744859 3.969140 16.403842 42.660641 11.227780 -5.700790 -7.644522 13.833520 -6.805911 0.000000 0.000000 0.000000 9.963531 -48.579755 9.535835 -26.041657 -20.061954 -13.649238 30.176069 -3.137263 -1.993552 -21.424929 -6.050472 5.885736 0.000000 0.000000 0.000000 -6.233421 -19.940619 0.718854 -5.396762 0.273465 1.994808 6.391396 -3.123122 -2.061880 2.315709 -1.734442 -0.978325 0.000000 0.000000 0.000000 3.716119 -1.581021 -0.147266 -0.189745 0.046175 0.172689 0.000000 0.000000 0.000000 3.937590 -3.073739 -1.249870 0.999537 -8.616911 -13.595592 -4.184197 -13.478833 -41.397855 5.455173 -51.651048 3.814092 0.000000 0.000000 0.000000 4.250882 -0.354260 0.398379 1.980462 7.950856 6.556438 -6.282597 28.731088 44.513074 38.191344 87.417296 -34.922341 0.000000 0.000000 0.000000 
-2.667987 91.040665 3.759122 0.000000 0.000000 0.000000 6.963792 -26.066201 2.222463 -32.907148 3.783082 16.344581 43.026893 11.221376 -5.690946 -7.333403 13.819967 -6.775318 0.000000 0.000000 0.000000 10.413940 -48.732112 9.909952 -25.622966 -20.228058 -13.437277 29.936893 -2.996813 -2.116461 -21.537852 -5.872426 5.769356 0.000000 0.000000 0.000000 -6.307225 -20.355796 0.690116 -5.501594 -0.527991 1.974667 6.330148 -3.063150 -2.084832 2.274487 -1.697992 -0.991600 0.000000 0.000000 0.000000 3.706913 -1.563519 -0.166475 -0.200103 0.061623 0.169666 0.000000 0.000000 0.000000 3.904560 -3.053483 -1.278056 1.000134 -8.547732 -13.623296 -4.393848 -13.564511 -41.569590 5.343260 -51.846334 3.726717 0.000000 0.000000 0.000000 4.217475 -0.322539 0.363384 1.970870 8.006486 6.493500 -6.213629 28.638413 44.323468 38.052627 87.380270 -34.821636 0.000000 0.000000 0.000000 
-3.015596 91.132362 3.905624 0.000000 0.000000 0.000000 6.803951 -26.660503 2.189228 -33.115861 3.605934 16.264673 43.368915 11.152008 -5.642584 -7.024447 13.731000 -6.729886 0.000000 0.000000 0.000000 10.869915 -48.833807 10.275347 -25.181430 -20.378950 -13.220148 29.702372 -2.868276 -2.230367 -21.640189 -5.708529 5.657248 0.000000 0.000000 0.000000 -6.380938 -20.770909 0.657779 -5.627119 -1.328829 1.945508 6.271389 -2.994002 -2.107275 2.234006 -1.657156 -1.004493 0.000000 0.000000 0.000000 3.700584 -1.543802 -0.186221 -0.209043 0.077769 0.165685 0.000000 0.000000 0.000000 3.869731 -3.030768 -1.307602 1.001138 -8.476890 -13.656728 -4.597611 -13.654708 -41.741817 5.234745 -52.044494 3.640878 0.000000 0.000000 0.000000 4.184873 -0.288288 0.328566 1.963461 8.067023 6.436262 -6.151584 28.540031 44.151982 37.728736 87.335013 -34.534184 0.000000 0.000000 0.000000 
-3.346393 91.232140 4.051180 0.000000 0.000000 0.000000 6.605208 -27.226288 2.123585 -33.368394 3.437949 16.166069 43.677776 11.010101 -5.553272 -6.723411 13.556019 -6.673330 0.000000 0.000000 0.000000 11.326618 -48.887591 10.628661 -24.722450 -20.514057 -12.999700 29.475309 -2.752369 -2.334415 -21.730969 -5.559774 5.550560 0.000000 0.000000 0.000000 -6.453769 -21.182891 0.621616 -5.770644 -2.120012 1.904984 6.215801 -2.916315 -2.128941 2.194662 -1.612267 -1.016853 0.000000 0.000000 0.000000 3.697486 -1.521902 -0.206463 -0.216423 0.094563 0.160726 0.000000 0.000000 0.000000 3.833592 -3.005799 -1.338535 1.002652 -8.405418 -13.696177 -4.793023 -13.748651 -41.911584 5.130937 -52.243007 3.557831 0.000000 0.000000 0.000000 4.153409 -0.251682 0.294130 1.958466 8.131464 6.385023 -6.097250 28.436863 43.998815 37.246244 87.282209 -34.086749 0.000000 0.000000 0.000000 
-3.659328 91.338371 4.193417 0.000000 0.000000 0.000000 6.370146 -27.763812 2.028434 -33.661781 3.278875 16.051762 43.946919 10.788250 -5.422928 -6.435401 13.286970 -6.611241 0.000000 0.000000 0.000000 11.778458 -48.896382 10.966423 -24.252523 -20.632786 -12.778187 29.257392 -2.649847 -2.428309 -21.810083 -5.426993 5.449635 0.000000 0.000000 0.000000 -6.524958 -21.588601 0.581716 -5.927515 -2.893102 1.852113 6.164247 -2.830833 -2.149621 2.156956 -1.563699 -1.028553 0.000000 0.000000 0.000000 3.697983 -1.497899 -0.227197 -0.222104 0.111921 0.154765 0.000000 0.000000 0.000000 3.796692 -2.978817 -1.370859 1.004798 -8.334496 -13.741812 -4.978632 -13.845503 -42.076151 5.032578 -52.439508 3.478514 0.000000 0.000000 0.000000 4.123433 -0.212906 0.260258 1.956095 8.198846 6.339938 -6.051388 28.329384 43.863352 36.627842 87.222861 -33.502324 0.000000 0.000000 0.000000 
-3.953643 91.448799 4.330049 0.000000 0.000000 0.000000 6.101985 -28.274116 1.907554 -33.992984 3.128171 15.925484 44.171960 10.482052 -5.254019 -6.165217 12.919302 -6.550750 0.000000 0.000000 0.000000 12.218882 -48.863597 11.285055 -23.779509 -20.734597 -12.558260 29.049242 -2.561529 -2.512189 -21.878284 -5.310940 5.354149 0.000000 0.000000 0.000000 -6.593883 -21.985102 0.538482 -6.091621 -3.640431 1.787335 6.117568 -2.738423 -2.169178 2.121386 -1.511877 -1.039508 0.000000 0.000000 0.000000 3.702353 -1.471910 -0.248434 -0.225994 0.129742 0.147781 0.000000 0.000000 0.000000 3.759608 -2.950083 -1.404543 1.007712 -8.265251 -13.793661 -5.154008 -13.944361 -42.232976 4.939883 -52.631805 3.403594 0.000000 0.000000 0.000000 4.095268 -0.172143 0.227108 1.956488 8.268283 6.300984 -6.014774 28.217576 43.744240 35.890096 87.157032 -32.798046 0.000000 0.000000 0.000000 
-4.228819 91.560822 4.459097 0.000000 0.000000 0.000000 5.804509 -28.758833 1.765200 -34.358741 2.985128 15.791269 44.350102 10.090606 -5.051254 -5.917720 12.452494 -6.499718 0.000000 0.000000 0.000000 12.640502 -48.793335 11.581024 -23.312561 -20.819125 -12.342871 28.850579 -2.488259 -2.586487 -21.937022 -5.212321 5.263345 0.000000 0.000000 0.000000 -6.660093 -22.369732 0.492579 -6.256129 -4.355139 1.712238 6.076376 -2.640050 -2.187586 2.088331 -1.457258 -1.049691 0.000000 0.000000 0.000000 3.710700 -1.444072 -0.270184 -0.228083 0.147919 0.139773 0.000000 0.000000 0.000000 3.722895 -2.919838 -1.439525 1.011536 -8.198616 -13.851602 -5.319536 -14.044375 -42.379756 4.852661 -52.818106 3.333530 0.000000 0.000000 0.000000 4.069177 -0.129584 0.194808 1.959686 8.339038 6.267986 -5.988191 28.100957 43.639595 35.044806 87.084359 -31.986247 0.000000 0.000000 0.000000 
-4.484480 91.671860 4.579146 0.000000 0.000000 0.000000 5.482147 -29.220365 1.605734 -34.755107 2.848959 15.652903 44.479445 9.616723 -4.820918 -5.698151 11.890249 -6.465648 0.000000 0.000000 0.000000 13.035599 -48.690270 11.851062 -22.861645 -20.886252 -12.135058 28.660515 -2.430824 -2.651800 -21.988245 -5.131762 5.176264 0.000000 0.000000 0.000000 -6.723246 -22.740124 0.444838 -6.414197 -5.031209 1.629045 6.040899 -2.536733 -2.204964 2.057972 -1.400320 -1.059156 0.000000 0.000000 0.000000 3.722922 -1.414539 -0.292452 -0.228468 0.166344 0.130761 0.000000 0.000000 0.000000 3.687062 -2.888272 -1.475708 1.016410 -8.135174 -13.915348 -5.476126 -14.144885 -42.514622 4.770508 -52.997138 3.268625 0.000000 0.000000 0.000000 4.045359 -0.085420 0.163463 1.965624 8.410491 6.240674 -5.972326 27.978779 43.547189 34.102052 87.004350 -31.077859 0.000000 0.000000 0.000000 
-4.720285 91.779694 4.689517 0.000000 0.000000 0.000000 5.140116 -29.661801 1.433342 -35.176878 2.718907 15.513518 44.558327 9.066906 -4.570036 -5.512239 11.240402 -6.454461 0.000000 0.000000 0.000000 13.396986 -48.559343 12.092515 -22.436461 -20.936201 -11.937679 28.477900 -2.389843 -2.708801 -22.034120 -5.069740 5.091924 0.000000 0.000000 0.000000 -6.783013 -23.094044 0.396148 -6.559527 -5.663577 1.540046 6.010963 -2.429499 -2.221584 2.030277 -1.341529 -1.068048 0.000000 0.000000 0.000000 3.738696 -1.383471 -0.315248 -0.227350 0.184913 0.120794 0.000000 0.000000 0.000000 3.652546 -2.855506 -1.512976 1.022469 -8.075126 -13.984473 -5.624954 -14.245582 -42.636397 4.692961 -53.168440 3.209032 0.000000 0.000000 0.000000 4.023970 -0.039846 0.133156 1.974166 8.482163 6.218758 -5.967682 27.850325 43.464626 33.073350 86.916309 -30.084965 0.000000 0.000000 0.000000 
